<?xml version="1.0" standalone="no"?>
<!DOCTYPE svg PUBLIC "-//W3C//DTD SVG 20010904//EN"
 "http://www.w3.org/TR/2001/REC-SVG-20010904/DTD/svg10.dtd">
<svg version="1.0" xmlns="http://www.w3.org/2000/svg"
 width="400.000000pt" height="400.000000pt" viewBox="0 0 400.000000 400.000000"
 preserveAspectRatio="xMidYMid meet">

<g transform="translate(0.000000,400.000000) scale(0.100000,-0.100000)"
fill="#000000" stroke="none">
<path d="M1855 3974 c-16 -2 -73 -9 -125 -15 -344 -39 -724 -206 -1005 -441
-595 -497 -845 -1286 -644 -2038 142 -535 520 -1000 1011 -1246 501 -251 1097
-284 1608 -89 996 380 1512 1470 1175 2482 -138 414 -426 790 -785 1022 -248
160 -514 263 -795 306 -98 15 -381 28 -440 19z m316 -555 c347 -45 665 -214
895 -477 446 -509 472 -1265 63 -1802 -297 -390 -774 -602 -1260 -560 -354 31
-662 180 -914 441 -530 550 -524 1432 15 1979 316 321 760 476 1201 419z"/>
<path d="M1796 3310 c-330 -52 -631 -224 -831 -474 -155 -196 -240 -385 -280
-625 -25 -148 -16 -376 19 -519 205 -822 1102 -1245 1861 -878 388 187 662
552 730 969 19 120 19 328 -1 442 -91 520 -466 924 -983 1057 -102 26 -136 30
-286 33 -93 2 -196 0 -229 -5z m353 -701 c194 -61 253 -164 255 -439 2 -254
-53 -364 -211 -423 -48 -17 -83 -22 -203 -24 l-145 -2 -3 -170 -2 -171 -130 0
-130 0 2 608 3 607 114 3 c94 2 117 0 132 -14 17 -15 23 -14 86 9 75 28 173
34 232 16z"/>
<path d="M1885 2386 l-40 -13 0 -219 0 -219 96 -3 c86 -2 98 0 130 21 43 29
58 60 70 145 18 128 -12 244 -73 282 -38 23 -118 26 -183 6z"/>
</g>
</svg>
